<svg xmlns="http://www.w3.org/2000/svg" viewBox="0 0 71.6 66.14"><defs><style>.cls-1{fill:#3f222a;}.cls-2{fill:#ffefe1;}.cls-3{fill:#e2c4a3;}.cls-4{fill:#f9ac50;}.cls-5{fill:#3a2127;}.cls-6{fill:#fff;}</style></defs><title>Ativo 1</title><g id="Camada_2" data-name="Camada 2"><g id="Layer_1" data-name="Layer 1"><path class="cls-1" d="M68.57,8.16H54.93V3a3,3,0,0,0-6.06,0v9.18H22.72V3a3,3,0,1,0-6.06,0V8.16H3a3,3,0,0,0,0,6.06H5.85a3,3,0,0,0,2.33,5,3.32,3.32,0,0,0,.74-.07V61.67a4.47,4.47,0,0,0,4.47,4.47h45a4.46,4.46,0,0,0,4.46-4.47V19.15a5.11,5.11,0,0,0,.58,0,3,3,0,0,0,3-3,3,3,0,0,0-.71-1.94h2.83a3,3,0,1,0,0-6.06Z"/><path class="cls-2" d="M60.18,27.71c0,15.13-10.79,27.39-24.11,27.39S12,42.84,12,27.71s24.11-.3,24.11-.3S60.18,12.58,60.18,27.71Z"/><path class="cls-3" d="M36.07,27.41s2.15-17.55-22.54-17.2Z"/><path class="cls-2" d="M36.07,27.41s-3-10.79-19.36-9.83Z"/><path class="cls-3" d="M36.17,27.41S34,9.86,58.71,10.21Z"/><path class="cls-2" d="M36.17,27.41s3-10.79,19.36-9.83Z"/><path class="cls-4" d="M28.06,29.7A5.06,5.06,0,1,1,23,24.64,5.06,5.06,0,0,1,28.06,29.7Z"/><path class="cls-5" d="M26.89,29.7A3.89,3.89,0,1,1,23,25.81,3.89,3.89,0,0,1,26.89,29.7Z"/><polygon class="cls-6" points="27.63 26.24 26.89 24.41 26.16 26.24 24.38 26.92 26.13 27.49 26.89 29.44 27.66 27.49 29.41 26.92 27.63 26.24"/><path class="cls-6" d="M22.61,32.17a1.19,1.19,0,0,1-1.94-1.23c.26-.41.52.14,1.06.48S22.87,31.76,22.61,32.17Z"/><path class="cls-4" d="M53.49,29.7a5.07,5.07,0,1,1-5.06-5.06A5.07,5.07,0,0,1,53.49,29.7Z"/><path class="cls-5" d="M52.32,29.7a3.89,3.89,0,1,1-3.89-3.89A3.89,3.89,0,0,1,52.32,29.7Z"/><polygon class="cls-6" points="53.05 26.24 52.32 24.41 51.59 26.24 49.8 26.92 51.56 27.49 52.32 29.44 53.08 27.49 54.83 26.92 53.05 26.24"/><path class="cls-6" d="M47.89,32.17A1.19,1.19,0,0,1,46,30.94c.25-.41.51.14,1,.48S48.15,31.76,47.89,32.17Z"/><path class="cls-4" d="M39.44,34.7c0,.95-3.64,3.57-3.64,3.57s-3.64-2.62-3.64-3.57a4,4,0,0,1,3.64-3.34A4,4,0,0,1,39.44,34.7Z"/><path class="cls-5" d="M35.8,38.77l-.24-.17c-1.14-.83-3.81-2.86-3.81-3.9a.41.41,0,1,1,.81,0c0,.39,1.48,1.77,3.24,3.07,1.76-1.3,3.22-2.68,3.23-3.08a.41.41,0,0,1,.42-.39.4.4,0,0,1,.39.4c0,1-2.66,3.07-3.81,3.9Z"/><path class="cls-3" d="M15,48.16,10.34,51S14.42,51.85,15,48.16Z"/><path class="cls-3" d="M13.63,56.73l4-5.73S18.55,56.46,13.63,56.73Z"/><path class="cls-3" d="M17.46,63l3-10.39S24.08,59.55,17.46,63Z"/><path class="cls-3" d="M57,48.16,61.57,51S57.5,51.85,57,48.16Z"/><path class="cls-3" d="M58.29,56.73l-4-5.73S53.36,56.46,58.29,56.73Z"/><path class="cls-3" d="M54.46,63l-3-10.39S47.83,59.55,54.46,63Z"/><path class="cls-3" d="M18.89,34.8l-3.61,3.08S19.45,37.78,18.89,34.8Z"/><path class="cls-3" d="M22.25,37.09l-2.19,5.25S23.83,40.86,22.25,37.09Z"/><path class="cls-3" d="M53.36,34.8,57,37.88S52.8,37.78,53.36,34.8Z"/><path class="cls-3" d="M50,37.09l2.19,5.25S48.42,40.86,50,37.09Z"/></g></g></svg>